<svg width="584.05" height="92.2" xmlns="http://www.w3.org/2000/svg" data-name="Calque 1">

 <g>
  <title>Layer 1</title>
  <g data-name="Logotype - Rose Elles bougent" id="Logotype_-_Rose_Elles_bougent">
   <g id="svg_1">
    <path id="svg_2" fill="#dd0165" d="m24.67,22.19c-1.36,-0.89 -2.95,-1.83 -4.62,-1.96c-1.39,-0.1 -2.58,0.69 -2.19,2.23c0.5,2 2.18,3.76 3.64,5.13c4.36,4.07 9.93,7.17 15.48,9.43c-1.81,-3.88 -4.34,-7.49 -7.28,-10.57c-1.52,-1.59 -3.2,-3.06 -5.03,-4.27l0,0.01z" class="cls-1"/>
    <path id="svg_3" fill="#dd0165" d="m20.55,65.55c-1.23,1.32 -5.01,6.25999 -0.82,6.42c1.75,-0.04 3.41,-0.97 4.84,-1.91c2.03,-1.32 3.86,-2.95 5.5,-4.72c2.76,-2.98 5.15,-6.43 6.88,-10.13c-4.17,1.73 -8.16,3.89 -11.83,6.52c-1.62,1.16 -3.21,2.36 -4.58,3.82l0.01,0z" class="cls-1"/>
    <path id="svg_4" fill="#dd0165" d="m71.87,26.41c1.07,-1.21 4.56,-5.75 0.92,-6.17c-2.29,-0.27 -4.79,1.54 -6.5,2.83c-4.7,3.53 -8.56,8.56 -11.05,13.93c3.33,-1.38 6.54,-3.04 9.58,-4.99c2.5,-1.62 5.03,-3.39 7.05,-5.59l0,-0.01z" class="cls-1"/>
    <path id="svg_5" fill="#dd0165" d="m73.93,0l-55.67,0c-10.08,0 -18.26,8.18 -18.26,18.26l0,55.67c0,10.09 8.18,18.26 18.26,18.26l55.67,0c10.09,0 18.26,-8.18 18.26,-18.26l0,-55.67c0,-10.09 -8.18,-18.26 -18.26,-18.26zm-20.6,50c4.77,1.72 9.35,3.79 13.64,6.56c4.23,2.73 8.93,6.02 10.98,10.77c1.06001,2.43999 0.98,5.27 -1.06,7.18c-1.61,1.50999 -3.8,1.92 -5.92,1.55c-2.89,-0.50999 -5.52,-2.21 -7.78,-4c-2.67,-2.11 -4.99,-4.59 -7.04,-7.3c-2.68,-3.54 -4.65,-7.32 -6.1,-11.4c-0.68,-0.19 -1.37,-0.36 -2.1,-0.45c-1.95,-0.25 -3.91,-0.12 -5.79,0.42c-1.76,4.89 -4.26,9.35 -7.68,13.41c-2.28,2.7 -4.91,5.17001 -7.91,7.06001c-2.08,1.31 -4.55,2.46999 -7.07,2.39c-2.29,-0.07 -4.48,-1.32 -5.46,-3.43c-1.21,-2.61 -0.05,-5.5 1.47,-7.7c2.82,-4.06 7.21,-7.05 11.41,-9.57c3.79,-2.27 7.79,-4.02 11.92,-5.5c0.2,-0.72 0.38,-1.46 0.47,-2.23c0.21,-1.87 0.08,-3.75 -0.43,-5.55c-2.06,-0.72 -4.1,-1.5 -6.09,-2.42c-5.06,-2.35 -10.19,-5.38 -14.28,-9.22c-2.37,-2.23 -5.04,-5.43 -4.97,-8.89c0.07,-3.38 2.97,-5.58 6.16,-5.69c2.92,0.06 5.62,1.47 7.96,3.12c3.05,2.16 5.69,4.83 7.98,7.77c2.87,3.69 4.98,7.65 6.52,11.94c0.68,0.19 1.37,0.36 2.1,0.45c1.95,0.25 3.91,0.12 5.79,-0.42c1.54,-4.31 3.65,-8.27 6.53,-11.97c2.29,-2.95 4.93,-5.61 7.98,-7.77c2.33,-1.65 5.04,-3.06 7.96,-3.12c3.68,0.12 6.66,2.99 6.08,6.8c-0.56,3.66 -3.58,6.81 -6.33,9.05c-1.68,1.37 -3.45,2.63 -5.27,3.8c-4.29,2.76 -8.85,4.83 -13.61,6.55c-0.18,0.64 -0.34,1.29 -0.43,1.98c-0.26,1.96 -0.14,3.94 0.39,5.84l-0.02,-0.01z" class="cls-1"/>
    <path id="svg_6" fill="#dd0165" d="m46.29,43.64c-0.96,0 -1.91,-0.1 -2.86,-0.23c0.24,1.78 0.21,3.57 -0.03,5.35c1.78,-0.24 3.58,-0.22 5.37,0.03c-0.24,-1.78 -0.22,-3.57 0.03,-5.35c-0.83,0.11 -1.66,0.19 -2.5,0.2l-0.01,0z" class="cls-1"/>
    <path id="svg_7" fill="#dd0165" d="m67.77,70.16c1.4,0.89 3,1.78 4.7,1.81c4.2,-0.16 0.41,-5.11 -0.82,-6.42c-1.36,-1.46001 -2.96,-2.66 -4.58,-3.82c-3.68,-2.63 -7.66,-4.79 -11.83,-6.52c1.74,3.7 4.12,7.15 6.88,10.13c1.68,1.81001 3.56,3.48 5.64,4.82001l0.00999,0z" class="cls-1"/>
   </g>
   <polygon id="svg_8" fill="#dd0165" points="128.44 71.93 157.99 71.93 157.99 65.11 136.57 65.11 136.57 49.4 154.15 49.4 154.15 42.58 136.57 42.58 136.57 27.04 157.99 27.04 157.99 20.23 128.44 20.23 128.44 71.93" class="cls-1"/>
   <path id="svg_9" fill="#dd0165" d="m245.52,36.42c-2.84001,-1.63 -6.24001,-2.46 -10.11,-2.46s-7.21001,0.82 -10.16,2.44c-2.95,1.63 -5.28,3.92 -6.94,6.82c-1.66,2.9 -2.5,6.3 -2.5,10.13s0.83,7.13 2.46001,10.04c1.64,2.91 3.95,5.22 6.87,6.85c2.92,1.63 6.36,2.46 10.23,2.46c2.88,0 5.47,-0.36 7.70001,-1.07c2.23,-0.71 4.14999,-1.68 5.7,-2.89c1.56,-1.21 2.78999,-2.57999 3.64,-4.07c0.86,-1.5 1.37,-3.03 1.50999,-4.57l0.03,-0.32l-8.06,0l-0.03,0.26c-0.07001,0.64 -0.31,1.31 -0.72,1.97c-0.42,0.67 -1.03999,1.3 -1.85001,1.88c-0.81,0.58 -1.86,1.05 -3.12999,1.39c-1.27,0.35 -2.8,0.53 -4.55,0.53c-2.48,0 -4.64,-0.50999 -6.41,-1.52c-1.77,-1.01 -3.14,-2.46 -4.08,-4.33c-0.56999,-1.12 -0.95999,-2.39 -1.19,-3.79l30.32001,0l0.05,-0.23c0.05,-0.23 0.09,-0.62 0.11,-1.23c0.01999,-0.58 0.03,-1.09 0.03,-1.54c0,-3.73 -0.78,-7.07 -2.32001,-9.94c-1.53999,-2.88 -3.76999,-5.17 -6.61,-6.8l0.01001,-0.01zm-20.34001,10.11c0.97,-1.83 2.36,-3.26 4.11,-4.25c1.75999,-1 3.84,-1.51 6.17999,-1.51s4.31,0.47 5.87001,1.4c1.54999,0.93 2.73,2.17 3.50999,3.7c0.61,1.19 0.99001,2.49 1.12,3.86l-21.94,0c0.25,-1.17 0.63,-2.24 1.14,-3.2l0.01001,0z" class="cls-1"/>
   <path id="svg_10" fill="#dd0165" d="m286.73999,53.19c-1.39001,-0.82 -2.97,-1.48 -4.69,-1.99c-1.70999,-0.5 -3.48999,-0.91 -5.29999,-1.24c-1.95001,-0.34 -3.67001,-0.73 -5.13,-1.15c-1.44,-0.42 -2.56,-0.95 -3.33002,-1.58c-0.75,-0.61 -1.10999,-1.4 -1.10999,-2.43s0.37,-1.77 1.13,-2.35c0.79999,-0.61 1.81,-1.04 3.01999,-1.3c2.58002,-0.54 5.22,-0.54 7.48001,0.16c1.16,0.37 2.12,0.92 2.84,1.65c0.70999,0.71 1.06,1.61 1.06,2.74l0,0.77l8.03,0l0,-0.91c0,-2.49 -0.75,-4.62 -2.22,-6.34c-1.45999,-1.7 -3.39999,-3.03 -5.78,-3.93c-2.37,-0.9 -4.97,-1.35 -7.75,-1.35s-5.51999,0.43 -7.89999,1.26c-2.39001,0.85 -4.33002,2.11 -5.74002,3.76c-1.42999,1.66 -2.14999,3.71 -2.14999,6.08c0,1.83 0.42001,3.41 1.24002,4.71c0.81,1.29 1.92999,2.38 3.31,3.24c1.37,0.85 2.92999,1.55 4.64999,2.06c1.69,0.51 3.48001,0.93 5.32001,1.26c3.31,0.55 5.81,1.18 7.44,1.89c1.54999,0.67 2.29999,1.77 2.29999,3.34c0,0.96 -0.35001,1.73 -1.06,2.35c-0.73999,0.64 -1.73999,1.12 -3,1.43c-1.26999,0.32 -2.70001,0.48 -4.25,0.48c-2.62,0 -4.70999,-0.43 -6.22,-1.26c-1.47,-0.82 -2.19,-1.99 -2.19,-3.58l0,-0.98l-8.06,0l0,1.22c0,1.87 0.42999,3.54 1.26999,4.96c0.84,1.42 2.03,2.62 3.52002,3.57999c1.48999,0.95 3.23999,1.68 5.19998,2.17001c1.96002,0.49 4.07001,0.74 6.27002,0.74s4.19998,-0.23 6.14999,-0.68c1.94998,-0.45 3.72,-1.15 5.25,-2.08c1.54999,-0.93 2.78,-2.12 3.67999,-3.54c0.89999,-1.43 1.36002,-3.15 1.36002,-5.11s-0.43002,-3.52 -1.28003,-4.84c-0.84,-1.3 -1.97998,-2.38 -3.38998,-3.21l0.03,0z" class="cls-1"/>
   <path id="svg_11" fill="#dd0165" d="m338.51999,36.17c-2.57001,-1.49 -5.41,-2.24 -8.42999,-2.24s-5.63,0.71 -8.11002,2.12c-1.25998,0.71 -2.39999,1.57 -3.41998,2.56l0,-20.82l-8.13,0l0,54.11l8.13,0l0,-4.13c1.01999,1.02 2.16,1.91 3.41,2.65c2.47998,1.46 5.20999,2.21 8.12,2.21c3.09,0 5.95999,-0.75 8.53,-2.24c2.57999,-1.49 4.66998,-3.71 6.20999,-6.61c1.54001,-2.9 2.32001,-6.47 2.32001,-10.64s-0.80002,-7.58 -2.38,-10.43c-1.57999,-2.85 -3.67999,-5.05 -6.26001,-6.54l0.01001,0zm-14.79999,6.19c1.51999,-0.84 3.17999,-1.26 4.92001,-1.26c2.88998,0 5.34,0.98 7.28,2.91c1.94998,1.93 2.92999,5.01 2.92999,9.14s-0.99002,7.18 -2.95001,9.14c-1.95999,1.96 -4.39999,2.95 -7.26999,2.95c-1.75,0 -3.39999,-0.43 -4.92001,-1.28c-1.51999,-0.85 -2.78,-2.03 -3.72998,-3.49c-0.95001,-1.46 -1.43002,-3.13 -1.43002,-4.96l0,-4.75c0,-1.85 0.48001,-3.52 1.43002,-4.95c0.94998,-1.44 2.20999,-2.6 3.72998,-3.44l0.01001,-0.01z" class="cls-1"/>
   <path id="svg_12" fill="#dd0165" d="m381.14001,36.41c-2.92999,-1.62 -6.35001,-2.44 -10.17001,-2.44s-7.25,0.82 -10.16998,2.44c-2.93002,1.63 -5.26001,3.91 -6.89999,6.8c-1.65002,2.88 -2.48001,6.24 -2.48001,9.97s0.82999,7.13 2.48001,10.04c1.64999,2.91 3.96997,5.23 6.89999,6.89c2.92999,1.66 6.35999,2.5 10.17999,2.5s7.23999,-0.84 10.18002,-2.5c2.92999,-1.66 5.25,-3.98 6.89999,-6.89c1.64999,-2.91 2.47998,-6.28 2.47998,-10.04s-0.82999,-7.09 -2.47998,-9.97c-1.64999,-2.89 -3.97,-5.17 -6.89999,-6.8l-0.02002,0zm1.25,16.77c0,2.5 -0.48999,4.72 -1.45999,6.57c-0.96002,1.85 -2.32001,3.3 -4.02002,4.3c-1.69998,1.00999 -3.70999,1.52 -5.94998,1.52s-4.22,-0.51 -5.94,-1.52c-1.71002,-1.01 -3.07001,-2.45 -4.03,-4.3c-0.97,-1.86 -1.46002,-4.07 -1.46002,-6.57s0.49002,-4.66 1.46002,-6.49c0.95999,-1.81 2.31998,-3.23 4.03,-4.22c1.72,-0.99 3.70999,-1.49 5.94,-1.49s4.25,0.5 5.95999,1.48c1.69998,0.99 3.04999,2.41 4.01001,4.22c0.97,1.82 1.45999,4.01 1.45999,6.49l0,0.01z" class="cls-1"/>
   <path id="svg_13" fill="#dd0165" d="m420.98999,54.04c0,1.75 -0.39999,3.53 -1.19,5.27c-0.79001,1.74 -1.89999,3.2 -3.31,4.33c-1.39001,1.12 -3.06,1.69 -4.95001,1.69c-2.03,0 -3.62,-0.44 -4.72998,-1.31001c-1.11002,-0.87 -1.89999,-2.04 -2.35001,-3.46c-0.45001,-1.46 -0.67999,-3.08 -0.67999,-4.82l0,-21.22l-8.13,0l0,23.13c0,1.65 0.20999,3.37 0.63,5.11c0.41998,1.75 1.16,3.38 2.19,4.85c1.03998,1.48 2.45999,2.69 4.22998,3.59c1.77002,0.91 4,1.37 6.64999,1.37c2.37003,0 4.54001,-0.46 6.45001,-1.38c1.91,-0.92001 3.56,-2.18 4.89999,-3.77c0.10001,-0.12 0.19,-0.23 0.29001,-0.35l0,4.84l8.10001,0l0,-37.39l-8.10001,0l0,19.53l0,-0.01z" class="cls-1"/>
   <path id="svg_14" fill="#dd0165" d="m504.26999,36.39c-2.84,-1.63 -6.23999,-2.46 -10.10999,-2.46s-7.21002,0.82 -10.16,2.44c-2.95001,1.63 -5.28,3.92 -6.94,6.82c-1.66,2.9 -2.5,6.3 -2.5,10.13s0.82999,7.13 2.45999,10.04c1.64001,2.91 3.95001,5.22 6.87,6.85c2.92001,1.63 6.36002,2.46 10.23001,2.46c2.88,0 5.47,-0.36 7.69998,-1.07c2.23001,-0.71 4.15002,-1.68 5.70001,-2.89c1.56,-1.21 2.79001,-2.58 3.64001,-4.07c0.86002,-1.5 1.36996,-3.03 1.50998,-4.57l0.03003,-0.32l-8.06003,0l-0.03,0.26c-0.06,0.64 -0.31,1.31 -0.72,1.97c-0.41998,0.67 -1.04001,1.3 -1.85001,1.88c-0.81,0.58 -1.85999,1.05 -3.12997,1.39c-1.27002,0.35 -2.80002,0.53 -4.55002,0.53c-2.47998,0 -4.63,-0.51 -6.41,-1.52c-1.76999,-1.01 -3.13998,-2.46 -4.07999,-4.33c-0.57001,-1.12 -0.95999,-2.39 -1.19,-3.79l30.32001,0l0.04999,-0.23c0.04999,-0.23 0.09003,-0.62 0.10999,-1.23c0.02002,-0.58 0.03003,-1.09 0.03003,-1.54c0,-3.73 -0.78003,-7.07 -2.32001,-9.94c-1.54001,-2.88 -3.77002,-5.17 -6.61002,-6.8l0.01001,-0.01zm-20.32999,10.11c0.97,-1.83 2.35999,-3.26 4.10999,-4.25c1.76001,-1 3.84003,-1.51 6.18002,-1.51s4.31,0.47 5.87,1.4c1.54999,0.93 2.72998,2.17 3.50998,3.7c0.61002,1.19 0.99002,2.49 1.12003,3.86l-21.94,0c0.25,-1.17 0.63,-2.24 1.13998,-3.2l0.01001,0z" class="cls-1"/>
   <path id="svg_15" fill="#dd0165" d="m546.21002,35.65c-2.09998,-1.14 -4.65997,-1.72 -7.60999,-1.72s-5.53003,0.71 -7.92999,2.12c-1.58002,0.92 -2.96002,2.07 -4.12,3.43l0,-4.97l-8.10004,0l0,37.39l8.10004,0l0,-20.36c0,-1.95 0.43994,-3.72 1.29999,-5.25c0.85999,-1.53 2.03998,-2.76 3.5,-3.66c1.45996,-0.89 3.12,-1.34 4.92999,-1.34c2.06,0 3.72998,0.38 4.94,1.12c1.20996,0.74 2.08997,1.78 2.62,3.09c0.53998,1.33 0.81,2.9 0.81,4.66l0,21.74l8.09998,0l0,-23.82c0,-2.9 -0.57001,-5.43 -1.67999,-7.53c-1.12,-2.11 -2.76001,-3.76 -4.87,-4.9l0.01001,0z" class="cls-1"/>
   <path id="svg_16" fill="#dd0165" d="m205.24001,60.81c5.41,-11.29 6.73001,-20.98 7.16,-24.18c0.31,-2.29 0.41,-4.34 0.31,-6.24c-0.27,-5.11 -1.64,-8.76 -4.08,-10.83c-1.65999,-1.41 -3.70999,-2.03 -5.94,-1.77c-6.12,0.67 -9.87999,7.53 -10.28999,18.82c-0.25,7.98 1.69,17.47 4.95,24.23c-1.33,1.66 -4.14,4.26 -8.64999,4.26s-7.35001,-2.63 -8.68001,-4.3c5.41,-11.29 6.73001,-20.98 7.16,-24.18c0.31,-2.29 0.41,-4.34 0.31,-6.24c-0.26999,-5.11 -1.64,-8.76 -4.08,-10.83c-1.64999,-1.41 -3.70999,-2.02 -5.93999,-1.77c-6.12001,0.67 -9.88,7.53 -10.29001,18.82c-0.25,7.98 1.69,17.47 4.95,24.23c-1.33,1.66 -4.14,4.25999 -8.64999,4.25999l-1.24001,0l0,6.82001l1.24001,0c6.05,0 10.17,-2.83 12.61,-5.3c2.44,2.47 6.55998,5.3 12.60999,5.3s10.17,-2.83 12.61,-5.3c2.44,2.47 6.56,5.3 12.61,5.3l1.24001,0l0,-6.82001l-1.24001,0c-4.53999,0 -7.34999,-2.62 -8.67999,-4.3l0,0.02zm0.39,-25.09l0,0c-0.33,2.45 -1.19,8.82 -4.21001,16.71c-1.56,-5.08 -2.34999,-10.71 -2.2,-15.58c0.25,-6.87 2.02,-12.03 4.20999,-12.27c0.07001,0 0.14001,-0.01 0.21001,-0.01c0.24001,0 0.39999,0.05 0.57001,0.2c0.87,0.74 1.53,3.09 1.67999,5.99c0.08,1.48 0,3.1 -0.25999,4.97l0,-0.01zm-29.43001,16.7c-1.56,-5.08 -2.36,-10.71 -2.2,-15.58c0.25,-6.87 2.02,-12.03 4.21001,-12.27c0.06999,0 0.14,-0.01 0.20999,-0.01c0.24001,0 0.40001,0.05 0.57001,0.2c0.87,0.74 1.53,3.09 1.68999,5.99c0.08,1.48 0,3.1 -0.25999,4.97c-0.33,2.45 -1.19,8.82 -4.20999,16.71l-0.01001,-0.01z" class="cls-1"/>
   <path id="svg_17" fill="#dd0165" d="m584.04999,41.34l0,-6.82l-11.26001,0l0,-12.17l-8.09998,0l0,7.39c0,1.19 -0.03003,2.14 -0.10004,2.81c-0.06,0.63 -0.20996,1.08 -0.42999,1.35c-0.21997,0.26 -0.57996,0.42 -1.07001,0.49c-0.53998,0.08 -1.31995,0.12 -2.29999,0.12l-4.92999,0l0,6.82l8.84003,0l0,21.2c0,2.09 0.31,3.81 0.92999,5.11c0.62,1.31 1.45996,2.34 2.51001,3.05c1.02997,0.7 2.19,1.18999 3.42999,1.45c1.22998,0.26 2.47998,0.39 3.71997,0.39l4.69,0l0,-6.82l-3.69,0c-1.5,0 -2.42999,-0.46 -2.83997,-1.42c-0.42999,-1.02 -0.65002,-2.45 -0.65002,-4.25l0,-18.7l11.26001,0l-0.01001,0z" class="cls-1"/>
   <path id="svg_18" fill="#dd0165" d="m470.79999,72.25c-0.91998,-1.18 -2.20001,-2.09 -3.82001,-2.69c-1.59,-0.59 -3.44998,-0.99 -5.54999,-1.18l-13,-1.14c-1.85001,-0.16 -3.10001,-0.47 -3.70999,-0.95c-0.59,-0.45 -0.88,-1.01 -0.88,-1.71c0,-0.77 0.34,-1.43 1.03,-2.02c0.07999,-0.06 0.14999,-0.13 0.22998,-0.19c2.34003,0.89 5.05002,1.34 8.10001,1.34c3.45001,0 6.39001,-0.64 8.72,-1.91c2.33002,-1.27 4.21002,-3.02 5.58002,-5.21l0.03998,-0.07c1.83002,-2.95 2.79001,-6.53 2.79001,-10.36l0,-11.66l-5.73999,0l0,3.78c-1.20001,-1.17 -2.72,-2.17 -4.53,-2.96c-2.14001,-0.94 -4.62,-1.41 -7.38,-1.41c-3.26001,0 -6.20999,0.65 -8.73999,1.94c-2.54001,1.29 -4.56,3.09 -6,5.37c-1.44,2.28 -2.18002,4.9 -2.18002,7.78s0.71002,5.4 2.11002,7.62c0.63998,1.02 1.41998,1.94 2.32001,2.76c-0.24002,0.17 -0.48001,0.37 -0.74002,0.59c-0.81998,0.71 -1.53998,1.6 -2.16,2.64c-0.62997,1.06 -0.94,2.21 -0.94,3.44c0,1.98 0.81003,3.64 2.41,4.93999c1.58002,1.28 3.63,2.03 6.10001,2.25l13.97,1.14c1.64001,0.14 3.05002,0.38 4.20999,0.72c1.05002,0.31001 1.56,1.06001 1.56,2.29c0,0.81 -0.37997,1.51 -1.16998,2.13c-0.82001,0.64001 -2.07001,1.14001 -3.73999,1.49001c-1.70001,0.35 -3.87003,0.53 -6.44,0.53c-3.51001,0 -6.29001,-0.34 -8.26001,-1.02c-1.89999,-0.64999 -2.82001,-1.71 -2.82001,-3.23l-0.28998,0s0,0 0,0l-7.63,0l0,0.42c0,3.08 1.63998,5.54 4.85999,7.32c3.17001,1.75 7.82001,2.64 13.83002,2.64c4.19,0 7.75,-0.43999 10.59,-1.31c2.85999,-0.88 5.03998,-2.13 6.48999,-3.72c1.45999,-1.61 2.20999,-3.52 2.20999,-5.69c0,-1.93 -0.47,-3.50999 -1.38998,-4.7l-0.04001,0zm-25.89999,-27.65c0.79999,-1.22 1.91998,-2.18 3.32999,-2.86c1.42001,-0.68 3.09,-1.03 4.95001,-1.03s3.63,0.34 5.04001,1c1.39999,0.66 2.48999,1.6 3.23999,2.8c0.75,1.21 1.13,2.68 1.13,4.37s-0.38,3.2 -1.13,4.4c-0.75,1.2 -1.84,2.14 -3.23999,2.77c-1.41,0.64 -3.12003,0.96 -5.08002,0.96s-3.66998,-0.32 -5.07999,-0.96c-1.39999,-0.63 -2.49002,-1.55 -3.24002,-2.73c-0.75,-1.18 -1.12997,-2.64 -1.12997,-4.33s0.39999,-3.16 1.19998,-4.38l0.01001,-0.01z" class="cls-1"/>
  </g>
 </g>
</svg>